<svg width="249" height="57" viewBox="0 0 249 57" fill="none" xmlns="http://www.w3.org/2000/svg">
<path d="M101.591 11.5272L97.3608 35.9289C97.2859 36.4059 97.0488 36.795 96.6495 37.0962C96.2751 37.3724 95.8384 37.5105 95.3392 37.5105H90.0233C89.4992 37.5105 89.0375 37.3724 88.6381 37.0962C88.2638 36.795 88.0516 36.3933 88.0017 35.8912L85.0817 18.9456C84.9819 18.3933 84.8945 17.841 84.8196 17.2887C84.7697 16.7113 84.7073 16.1464 84.6325 15.5941H83.9212C83.8463 16.1464 83.7714 16.7113 83.6966 17.2887C83.6466 17.8661 83.5842 18.431 83.5094 18.9833L80.6268 35.8912C80.5519 36.3933 80.3148 36.795 79.9155 37.0962C79.5411 37.3724 79.1044 37.5105 78.6052 37.5105H73.2518C72.7277 37.5105 72.2785 37.3724 71.9041 37.0962C71.5298 36.795 71.3052 36.4059 71.2303 35.9289L67 11.5272H72.7277L75.4232 29.6025C75.4731 30.1799 75.523 30.7824 75.5729 31.41C75.6478 32.0126 75.7102 32.6653 75.7601 33.3682H76.4714C76.5712 32.7657 76.671 32.1381 76.7709 31.4854C76.8707 30.8326 76.9705 30.205 77.0703 29.6025L79.9529 13.2594C80.0028 12.7573 80.215 12.3431 80.5893 12.0167C80.9637 11.6904 81.4129 11.5272 81.9371 11.5272H86.654C87.1781 11.5272 87.6149 11.6904 87.9643 12.0167C88.3386 12.3431 88.5633 12.7573 88.6381 13.2594L91.5207 29.6402C91.6206 30.2427 91.7204 30.8703 91.8202 31.523C91.92 32.1506 92.0074 32.7657 92.0823 33.3682H92.831C92.8809 32.7657 92.9308 32.1506 92.9807 31.523C93.0307 30.8703 93.093 30.2552 93.1679 29.6778L95.8633 11.5272H101.591Z" fill="white"/>
<path d="M115.317 11C117.364 11 119.086 11.2259 120.483 11.6778C121.906 12.1046 123.054 12.8326 123.928 13.8619C124.801 14.8912 125.438 16.272 125.837 18.0042C126.236 19.7364 126.436 21.9079 126.436 24.5188C126.436 27.1297 126.236 29.3013 125.837 31.0335C125.438 32.7657 124.801 34.1464 123.928 35.1757C123.054 36.205 121.906 36.9331 120.483 37.3598C119.086 37.7866 117.364 38 115.317 38C113.271 38 111.536 37.7866 110.114 37.3598C108.691 36.9331 107.543 36.205 106.67 35.1757C105.796 34.1464 105.16 32.7657 104.76 31.0335C104.386 29.3013 104.199 27.1297 104.199 24.5188C104.199 21.9079 104.386 19.7364 104.76 18.0042C105.16 16.272 105.796 14.8912 106.67 13.8619C107.543 12.8326 108.691 12.1046 110.114 11.6778C111.536 11.2259 113.271 11 115.317 11ZM115.317 15.5188C113.995 15.5188 112.959 15.7824 112.21 16.3096C111.486 16.8368 110.962 17.7531 110.638 19.0586C110.338 20.364 110.189 22.1841 110.189 24.5188C110.189 26.8536 110.338 28.6736 110.638 29.9791C110.962 31.2845 111.486 32.2008 112.21 32.728C112.959 33.2301 113.995 33.4812 115.317 33.4812C116.615 33.4812 117.638 33.2301 118.387 32.728C119.136 32.2008 119.66 31.2845 119.959 29.9791C120.259 28.6736 120.409 26.8536 120.409 24.5188C120.409 22.1841 120.259 20.364 119.959 19.0586C119.66 17.7531 119.136 16.8368 118.387 16.3096C117.638 15.7824 116.615 15.5188 115.317 15.5188Z" fill="white"/>
<path d="M149.711 11.5272V16.046H141.925V37.5105H136.234V16.046H128.447V11.5272H149.711Z" fill="white"/>
<path d="M153.562 31.7866C154.286 31.7866 154.785 31.9372 155.06 32.2385C155.359 32.5146 155.509 33.0167 155.509 33.7448V35.5523C155.509 36.3054 155.359 36.8201 155.06 37.0962C154.785 37.3724 154.286 37.5105 153.562 37.5105H152.14C151.416 37.5105 150.905 37.3724 150.605 37.0962C150.33 36.8201 150.193 36.3054 150.193 35.5523V33.7448C150.193 33.0167 150.33 32.5146 150.605 32.2385C150.905 31.9372 151.416 31.7866 152.14 31.7866H153.562Z" fill="white"/>
<path d="M170.078 11.0753C171.276 11.0753 172.312 11.113 173.185 11.1883C174.059 11.2385 174.857 11.3264 175.581 11.4519C176.305 11.5774 177.054 11.7406 177.827 11.9414L177.378 16.1967C176.554 16.1464 175.793 16.1088 175.094 16.0837C174.396 16.0586 173.647 16.0335 172.848 16.0084C172.075 15.9833 171.151 15.9707 170.078 15.9707C168.805 15.9707 167.807 16.2343 167.083 16.7615C166.359 17.2636 165.848 18.1297 165.548 19.3598C165.274 20.59 165.136 22.3096 165.136 24.5188C165.136 26.7029 165.274 28.4226 165.548 29.6778C165.848 30.9079 166.359 31.7741 167.083 32.2761C167.807 32.7782 168.805 33.0293 170.078 33.0293C171.8 33.0293 173.248 33.0167 174.421 32.9916C175.594 32.9414 176.754 32.841 177.902 32.6904L178.389 36.9079C177.191 37.2845 175.968 37.5481 174.72 37.6987C173.472 37.8745 171.925 37.9623 170.078 37.9623C167.408 37.9623 165.261 37.5356 163.639 36.682C162.042 35.8033 160.894 34.3849 160.195 32.4268C159.496 30.4686 159.147 27.8326 159.147 24.5188C159.147 21.205 159.496 18.569 160.195 16.6109C160.894 14.6527 162.042 13.2469 163.639 12.3933C165.261 11.5146 167.408 11.0753 170.078 11.0753Z" fill="white"/>
<path d="M194.333 11.5272C194.807 11.5272 195.219 11.6653 195.568 11.9414C195.942 12.2176 196.192 12.5816 196.317 13.0335L203.804 37.5105H197.964L196.055 30.6192H187.145L185.273 37.5105H179.433L186.92 13.0335C187.045 12.5816 187.282 12.2176 187.632 11.9414C188.006 11.6653 188.43 11.5272 188.904 11.5272H194.333ZM190.552 18.3808L188.343 26.3264H194.857L192.685 18.3808C192.561 17.9791 192.448 17.5649 192.348 17.1381C192.274 16.6862 192.199 16.2594 192.124 15.8577H191.113C191.038 16.2594 190.951 16.6862 190.851 17.1381C190.751 17.5649 190.651 17.9791 190.552 18.3808Z" fill="white"/>
<path d="M214.935 11.0377C216.208 11.0377 217.593 11.113 219.091 11.2636C220.588 11.3891 222.048 11.6527 223.471 12.0544L223.096 15.8954C221.998 15.8452 220.701 15.8075 219.203 15.7824C217.731 15.7573 216.296 15.7448 214.898 15.7448C213.975 15.7448 213.226 15.795 212.652 15.8954C212.103 15.9958 211.703 16.2218 211.454 16.5732C211.229 16.8996 211.117 17.4519 211.117 18.2301C211.117 19.1339 211.317 19.7866 211.716 20.1883C212.14 20.59 212.851 20.9414 213.85 21.2427L218.829 22.8619C220.875 23.59 222.298 24.5565 223.096 25.7615C223.92 26.9414 224.332 28.5105 224.332 30.4686C224.332 32.4519 224.02 33.9958 223.396 35.1004C222.772 36.1799 221.749 36.9331 220.326 37.3598C218.929 37.7866 217.057 38 214.711 38C213.862 38 212.652 37.9372 211.079 37.8117C209.507 37.7113 207.723 37.4351 205.726 36.9833L206.063 32.9163C208.284 32.9916 210.056 33.0418 211.379 33.0669C212.727 33.092 213.837 33.1046 214.711 33.1046C216.208 33.1046 217.231 32.954 217.781 32.6527C218.33 32.3264 218.604 31.6234 218.604 30.5439C218.604 29.6151 218.404 28.9623 218.005 28.5858C217.631 28.2092 216.994 27.8828 216.096 27.6067L210.855 25.7992C208.858 25.0962 207.448 24.1548 206.625 22.9749C205.826 21.795 205.427 20.2259 205.427 18.2678C205.427 16.2845 205.739 14.7782 206.362 13.749C207.011 12.6946 208.035 11.9791 209.432 11.6025C210.83 11.2259 212.664 11.0377 214.935 11.0377Z" fill="white"/>
<path d="M234.1 11.5272V21.5063H243.31V11.5272H249V37.5105H243.31V25.7992H234.1V37.5105H228.373V11.5272H234.1Z" fill="white"/>
<rect x="4.5" y="0.5" width="49" height="49" rx="6.5" fill="url(#paint0_linear)" stroke="#FFC700"/>
<path opacity="0.5" d="M3 31.5L21.4096 14.4595L23 15.5L23.5 21C25.5 21.3333 29.6 22 30 22C30.4 22 33.1667 20.3333 34.5 19.5L39 17.5L43.8796 17.743L34.9333 28.2363L42.2406 34.0573L19.5 57L11.5 51.5L0 47.5L3 31.5Z" fill="url(#paint1_linear)"/>
<path d="M42.6137 13.5659C42.4313 13.1013 41.9158 12.8787 41.4688 13.0668L36.5824 15.1121C36.1326 15.3006 35.9163 15.8289 36.0983 16.2927L36.4286 17.1318L30.4014 19.6875H28.1211V16.9688C28.1211 16.4679 27.728 16.0625 27.2422 16.0625C26.7564 16.0625 26.3633 16.4679 26.3633 16.9688V19.6875H24.6055V15.1563C24.6055 14.6554 24.2124 14.25 23.7266 14.25H21.9688C21.4829 14.25 21.0898 14.6554 21.0898 15.1563C21.0898 15.6572 21.4829 16.0625 21.9688 16.0625H22.8477V20.3796L21.8649 22.4063H18.4531C18.0746 22.4063 17.739 22.6559 17.6197 23.0258L16.9412 25.125C17.1989 25.125 37.7225 25.125 37.5431 25.125L36.8646 23.0258C36.7453 22.6559 36.4096 22.4063 36.0311 22.4063H32.6193L31.9378 21.0007L37.0895 18.8115L37.42 19.6512C37.6038 20.1193 38.1204 20.3366 38.565 20.1504L43.4513 18.1051C43.9011 17.9166 44.1174 17.3883 43.9354 16.9245L42.6137 13.5659Z" fill="white"/>
<path d="M20.2109 36H37.7891C41.1811 36 44 33.1538 44 29.6563V27.8438C44 27.3428 43.6069 26.9375 43.1211 26.9375H14.8789C14.3931 26.9375 14 27.3428 14 27.8438V29.6563C14 33.1538 16.8189 36 20.2109 36ZM37.7891 30.5625C38.2745 30.5625 38.668 30.9683 38.668 31.4688C38.668 31.9692 38.2745 32.375 37.7891 32.375C37.3037 32.375 36.9102 31.9692 36.9102 31.4688C36.9102 30.9683 37.3037 30.5625 37.7891 30.5625ZM32.5156 30.5625H34.2734C34.7592 30.5625 35.1523 30.9678 35.1523 31.4688C35.1523 31.9697 34.7592 32.375 34.2734 32.375H32.5156C32.0298 32.375 31.6367 31.9697 31.6367 31.4688C31.6367 30.9678 32.0298 30.5625 32.5156 30.5625ZM29 30.5625C29.4854 30.5625 29.8789 30.9683 29.8789 31.4688C29.8789 31.9692 29.4854 32.375 29 32.375C28.5146 32.375 28.1211 31.9692 28.1211 31.4688C28.1211 30.9683 28.5146 30.5625 29 30.5625ZM23.7266 30.5625H25.4844C25.9702 30.5625 26.3633 30.9678 26.3633 31.4688C26.3633 31.9697 25.9702 32.375 25.4844 32.375H23.7266C23.2408 32.375 22.8477 31.9697 22.8477 31.4688C22.8477 30.9678 23.2408 30.5625 23.7266 30.5625ZM20.2109 30.5625C20.6963 30.5625 21.0898 30.9683 21.0898 31.4688C21.0898 31.9692 20.6963 32.375 20.2109 32.375C19.7255 32.375 19.332 31.9692 19.332 31.4688C19.332 30.9683 19.7255 30.5625 20.2109 30.5625Z" fill="white"/>
<defs>
<linearGradient id="paint0_linear" x1="29" y1="1" x2="29" y2="49" gradientUnits="userSpaceOnUse">
<stop stop-color="#B57B0B"/>
<stop offset="1" stop-color="#FFA800"/>
</linearGradient>
<linearGradient id="paint1_linear" x1="38.5" y1="15.5" x2="4.5" y2="46.5" gradientUnits="userSpaceOnUse">
<stop stop-color="#232D33"/>
<stop offset="1" stop-color="#232D33" stop-opacity="0"/>
</linearGradient>
</defs>
</svg>
